<svg xmlns="http://www.w3.org/2000/svg" style="display:none">
<!-- MAXIA Crypto Icon Sprite — 15 chains + 25 tokens -->
<!-- Sources: Official brand kits, SVG paths optimised via SVGO -->

<!-- ── CHAINS ── -->
<symbol id="icon-chain-bitcoin" viewBox="0 0 32 32"><circle cx="16" cy="16" r="16" fill="#F7931A"/><path fill="#fff" d="M22.1 13.5c.3-2.1-1.3-3.2-3.4-3.9l.7-2.8-1.7-.4-.7 2.7c-.4-.1-.9-.2-1.4-.3l.7-2.7-1.7-.4-.7 2.8-1.1-.3-2.4-.6-.5 1.8s1.3.3 1.2.3c.7.2.8.6.8 1l-.8 3.2c0 0 .1 0 .1 0l-.1 0-1.1 4.6c-.1.2-.3.5-.7.4 0 0-1.2-.3-1.2-.3l-.8 2 2.2.6 1.2.3-.7 2.8 1.7.4.7-2.8c.5.1.9.2 1.4.3l-.7 2.8 1.7.4.7-2.8c2.9.5 5.1.3 6-2.3.7-2.1 0-3.3-1.5-4.1 1.1-.3 1.9-1 2.1-2.5zm-3.8 5.3c-.5 2.1-4.1 1-5.2.7l.9-3.7c1.2.3 4.9.9 4.3 3zm.5-5.3c-.5 1.9-3.4.9-4.4.7l.8-3.4c1 .2 4.1.7 3.6 2.7z"/></symbol>

<symbol id="icon-chain-solana" viewBox="0 0 32 32"><rect width="32" height="32" rx="16" fill="#000"/><path fill="url(#sol-g)" d="M9.5 20.8a.5.5 0 0 1 .4-.2h14.7a.3.3 0 0 1 .2.4l-2.3 2.3a.5.5 0 0 1-.4.2H7.4a.3.3 0 0 1-.2-.4l2.3-2.3zm0-12.3a.5.5 0 0 1 .4-.2h14.7a.3.3 0 0 1 .2.4l-2.3 2.3a.5.5 0 0 1-.4.2H7.4a.3.3 0 0 1-.2-.4l2.3-2.3zm12.9 6a.5.5 0 0 0-.4-.2H7.4a.3.3 0 0 0-.2.4l2.3 2.3a.5.5 0 0 0 .4.2h14.7a.3.3 0 0 0 .2-.4l-2.4-2.3z"/><defs><linearGradient id="sol-g" x1="7" y1="24" x2="25" y2="8"><stop stop-color="#9945FF"/><stop offset="1" stop-color="#14F195"/></linearGradient></defs></symbol>

<symbol id="icon-chain-ethereum" viewBox="0 0 32 32"><circle cx="16" cy="16" r="16" fill="#627EEA"/><path fill="#fff" fill-opacity=".6" d="M16.5 4v8.9l7.5 3.3z"/><path fill="#fff" d="M16.5 4L9 16.2l7.5-3.3z"/><path fill="#fff" fill-opacity=".6" d="M16.5 22v6L24 17.6z"/><path fill="#fff" d="M16.5 28V22L9 17.6z"/><path fill="#fff" fill-opacity=".2" d="M16.5 20.6l7.5-4.4-7.5-3.3z"/><path fill="#fff" fill-opacity=".6" d="M9 16.2l7.5 4.4v-7.7z"/></symbol>

<symbol id="icon-chain-base" viewBox="0 0 32 32"><circle cx="16" cy="16" r="16" fill="#0052FF"/><path fill="#fff" d="M16 27c6.1 0 11-4.9 11-11S22.1 5 16 5C10.2 5 5.4 9.5 5 15.2h14.7v1.6H5C5.4 22.5 10.2 27 16 27z"/></symbol>

<symbol id="icon-chain-xrp" viewBox="0 0 32 32"><circle cx="16" cy="16" r="16" fill="#23292F"/><path fill="#fff" d="M23.3 8h2.5l-5.7 5.5a5.8 5.8 0 0 1-8.2 0L6.2 8h2.5l4.4 4.3a3.8 3.8 0 0 0 5.3 0L23.3 8zM8.6 24H6.2l5.8-5.5a5.8 5.8 0 0 1 8.2 0l5.6 5.5h-2.5l-4.4-4.3a3.8 3.8 0 0 0-5.3 0L8.6 24z"/></symbol>

<symbol id="icon-chain-polygon" viewBox="0 0 32 32"><circle cx="16" cy="16" r="16" fill="#8247E5"/><path fill="#fff" d="M21.2 12.7a1.3 1.3 0 0 0-1.2 0l-2.8 1.6-1.9 1.1-2.8 1.6a1.3 1.3 0 0 1-1.2 0l-2.2-1.3a1.2 1.2 0 0 1-.6-1v-2.5c0-.4.2-.8.6-1l2.1-1.2a1.3 1.3 0 0 1 1.2 0l2.1 1.2c.4.2.6.6.6 1v1.6l1.9-1.1v-1.7c0-.4-.2-.8-.6-1l-4-2.3a1.3 1.3 0 0 0-1.2 0l-4 2.4c-.4.2-.7.6-.7 1v4.6c0 .4.2.8.6 1l4 2.3a1.3 1.3 0 0 0 1.3 0l2.8-1.6 1.9-1.1 2.8-1.6a1.3 1.3 0 0 1 1.2 0l2.1 1.2c.4.2.6.6.6 1v2.5c0 .4-.2.8-.6 1l-2.1 1.2a1.3 1.3 0 0 1-1.2 0l-2.1-1.2a1.2 1.2 0 0 1-.6-1V18l-1.9 1.1v1.6c0 .4.2.8.6 1l4 2.3a1.3 1.3 0 0 0 1.3 0l4-2.3c.4-.2.6-.6.6-1v-4.6c0-.4-.2-.8-.6-1l-4.1-2.4z"/></symbol>

<symbol id="icon-chain-arbitrum" viewBox="0 0 32 32"><circle cx="16" cy="16" r="16" fill="#28A0F0"/><path fill="#fff" d="M16.9 15.3l2.4 3.8 2.4-1.4-3.4-5.4-1.4 3zm5.7 5.3l1.2-7.1a1 1 0 0 0-.5-.9l-6.5-3.7a1 1 0 0 0-1 0l-6.5 3.7a1 1 0 0 0-.5.9l1.2 7.1 1.9-1.1-1-6 5.4-3 4 6.4-1.7 2.7 2 1.2z"/></symbol>

<symbol id="icon-chain-avalanche" viewBox="0 0 32 32"><circle cx="16" cy="16" r="16" fill="#E84142"/><path fill="#fff" d="M20.5 20h3c.5 0 .7-.1.9-.5.2-.3.2-.7 0-1l-7.5-13c-.2-.4-.5-.5-.9-.5s-.7.2-.9.5l-2.2 3.8c0 0 0 0 0 0l5.3 9.3c.2.3.5.5.9.5h1.4zm-8.7 0h-3.3c-.5 0-.7-.1-.9-.5-.2-.3-.2-.7 0-1l1.6-2.8.2-.3 2.2-3.7 2.2 3.8-1.1 1.9-.9 1.6c-.2.3-.5.5-.9.5h-.1z"/></symbol>

<symbol id="icon-chain-bnb" viewBox="0 0 32 32"><circle cx="16" cy="16" r="16" fill="#F0B90B"/><path fill="#fff" d="M16 6.7l2.8 2.8-5.2 5.2-2.8-2.8L16 6.7zm5.8 5.8l2.8 2.8-2.8 2.8-2.8-2.8 2.8-2.8zM7.4 12.5l2.8 2.8-2.8 2.8-2.8-2.8 2.8-2.8zm8.6 2.8l2.8 2.8-5.2 5.2L8.4 18l2.8-2.8 2.4 2.4 2.4-2.4z"/></symbol>

<symbol id="icon-chain-ton" viewBox="0 0 32 32"><circle cx="16" cy="16" r="16" fill="#0098EA"/><path fill="#fff" d="M16 7c-5 0-9 4-9 9s4 9 9 9 9-4 9-9-4-9-9-9zm-1 4h2v6.5l3.5-3.5 1.4 1.4L16 21.3l-5.9-5.9 1.4-1.4 3.5 3.5V11z"/></symbol>

<symbol id="icon-chain-sui" viewBox="0 0 32 32"><circle cx="16" cy="16" r="16" fill="#4DA2FF"/><path fill="#fff" d="M20.6 10.6c-1.7-1.7-3.9-2.6-4.6-2.6s-2.9.9-4.6 2.6C9.7 12.3 9 14 9 16s.7 3.7 2.4 5.4c1.7 1.7 3.9 2.6 4.6 2.6s2.9-.9 4.6-2.6C22.3 19.7 23 18 23 16s-.7-3.7-2.4-5.4zm-6.1 9a2.5 2.5 0 0 1-1.8-4.3l3.3-3.3 1.4 1.4-3.3 3.3a.5.5 0 0 0 .4.9h4.2a2.5 2.5 0 0 1 0 2h-4.2z"/></symbol>

<symbol id="icon-chain-tron" viewBox="0 0 32 32"><circle cx="16" cy="16" r="16" fill="#EF0027"/><path fill="#fff" d="M9 8.3l14 5.2-7.2 12.2L9 8.3zm2.4 2.3l4.8 9.8 4.5-7.6-9.3-2.2z"/></symbol>

<symbol id="icon-chain-near" viewBox="0 0 32 32"><circle cx="16" cy="16" r="16" fill="#000"/><path fill="#fff" d="M21.2 7.4l-3.8 5.7c-.2.3.2.6.4.4l3.7-3.1c.1-.1.3 0 .3.2v11c0 .1-.2.2-.3.1l-10-14.2c-.4-.5-1-.8-1.7-.8h-.4A2.4 2.4 0 0 0 7 9.1v13.8a2.4 2.4 0 0 0 4.8.6l3.8-5.7c.2-.3-.2-.6-.4-.4l-3.7 3.1c-.1.1-.3 0-.3-.2v-11c0-.1.2-.2.3-.1l10 14.2c.4.5 1 .8 1.7.8h.4A2.4 2.4 0 0 0 25 22.8V9.1a2.4 2.4 0 0 0-3.8-.6z"/></symbol>

<symbol id="icon-chain-aptos" viewBox="0 0 32 32"><circle cx="16" cy="16" r="16" fill="#2DD8A3"/><path fill="#fff" d="M20.6 10h-3.4l-1.3 2.1h3.3l-1.4 2.2H14l-1.3 2.1h5.5l-1.3 2.2h-7l-1.4 2.1h11.4L24 14.8l-3.4-4.8zm-9.2 0L8 14.8 11.4 20l1.4-2.1-2-3.2 1.3-2.1.7 1 1.3-2.1L12.8 10h-1.4z"/></symbol>

<symbol id="icon-chain-sei" viewBox="0 0 32 32"><circle cx="16" cy="16" r="16" fill="#9B1C1C"/><path fill="#fff" d="M16 7c-5 0-9 4-9 9s4 9 9 9 9-4 9-9-4-9-9-9zm3.5 13.5c-1.5 1.5-3.9 1.5-5.4.3l5.7-5.7c1.2 1.5 1.2 3.9-.3 5.4zm-7.4-2.6l5.7-5.7c-1.5-1.2-3.9-1.2-5.4.3s-1.5 3.9-.3 5.4z"/></symbol>

<!-- ── TOKENS ── -->
<symbol id="icon-usdc" viewBox="0 0 32 32"><circle cx="16" cy="16" r="16" fill="#2775CA"/><path fill="#fff" d="M20.6 18.5c0-2.1-1.3-2.8-3.8-3.1-1.8-.3-2.2-.7-2.2-1.5s.7-1.3 1.8-1.3c1 0 1.6.4 1.9 1.2.1.2.2.2.4.2h.9c.2 0 .3-.1.3-.3-.2-1.1-1-2-2.3-2.3v-1.3c0-.2-.1-.3-.3-.3h-.8c-.2 0-.3.1-.3.3v1.3c-1.6.2-2.6 1.3-2.6 2.6 0 2 1.2 2.7 3.7 3.1 1.7.3 2.3.6 2.3 1.6 0 .9-.8 1.6-1.9 1.6-1.5 0-2-.6-2.2-1.4 0-.2-.2-.3-.4-.3h-.9c-.2 0-.3.2-.3.3.3 1.3 1 2.2 2.7 2.5v1.3c0 .2.1.3.3.3h.8c.2 0 .3-.1.3-.3v-1.3c1.6-.3 2.6-1.3 2.6-2.8z"/><path fill="#fff" d="M13.2 24c-4.4-1.6-6.7-6.5-5.1-10.9.8-2.2 2.6-3.9 4.8-4.8.2-.1.3-.2.3-.4v-.8c0-.2-.1-.3-.3-.3-.1 0-.1 0-.2 0-5.3 1.8-8.1 7.4-6.4 12.6 1.1 3.1 3.4 5.5 6.6 6.6.2.1.4 0 .4-.2v-.8c0-.2-.1-.3-.1-.5 0-.3 0-.3 0-.5zm5.8-16.2c-.2-.1-.4 0-.4.2v.8c0 .3.2.4.3.5 4.4 1.6 6.7 6.5 5.1 10.9-.8 2.2-2.6 3.9-4.8 4.8-.2.1-.3.2-.3.4v.8c0 .2.1.3.3.3.1 0 .1 0 .2 0 5.3-1.8 8.1-7.4 6.4-12.6-1.1-3.2-3.5-5.5-6.8-6.6z"/></symbol>

<symbol id="icon-usdt" viewBox="0 0 32 32"><circle cx="16" cy="16" r="16" fill="#26A17B"/><path fill="#fff" d="M17.9 17.1v0c-.1 0-.7.1-2 .1-1 0-1.7 0-2-.1v0c-3.5-.2-6.2-.8-6.2-1.5s2.7-1.4 6.2-1.5v2.4c.3 0 1 .1 2 .1 1.2 0 1.8 0 2-.1v-2.4c3.5.2 6.1.8 6.1 1.5s-2.6 1.4-6.1 1.5zm0-3.3V11.5h4.7v-3H9.4v3h4.7v2.3c-4 .2-7 1-7 2s3 1.8 7 2v7h3.8v-7c4-.2 6.9-1 6.9-2s-2.9-1.8-6.9-2z"/></symbol>

<symbol id="icon-sol" viewBox="0 0 32 32"><rect width="32" height="32" rx="16" fill="#000"/><path fill="url(#sol-g2)" d="M9.5 20.8a.5.5 0 0 1 .4-.2h14.7a.3.3 0 0 1 .2.4l-2.3 2.3a.5.5 0 0 1-.4.2H7.4a.3.3 0 0 1-.2-.4l2.3-2.3zm0-12.3a.5.5 0 0 1 .4-.2h14.7a.3.3 0 0 1 .2.4l-2.3 2.3a.5.5 0 0 1-.4.2H7.4a.3.3 0 0 1-.2-.4l2.3-2.3zm12.9 6a.5.5 0 0 0-.4-.2H7.4a.3.3 0 0 0-.2.4l2.3 2.3a.5.5 0 0 0 .4.2h14.7a.3.3 0 0 0 .2-.4l-2.4-2.3z"/><defs><linearGradient id="sol-g2" x1="7" y1="24" x2="25" y2="8"><stop stop-color="#9945FF"/><stop offset="1" stop-color="#14F195"/></linearGradient></defs></symbol>

<symbol id="icon-eth" viewBox="0 0 32 32"><circle cx="16" cy="16" r="16" fill="#627EEA"/><path fill="#fff" fill-opacity=".6" d="M16.5 4v8.9l7.5 3.3z"/><path fill="#fff" d="M16.5 4L9 16.2l7.5-3.3z"/><path fill="#fff" fill-opacity=".6" d="M16.5 22v6L24 17.6z"/><path fill="#fff" d="M16.5 28V22L9 17.6z"/></symbol>

<symbol id="icon-btc" viewBox="0 0 32 32"><circle cx="16" cy="16" r="16" fill="#F7931A"/><path fill="#fff" d="M22.1 13.5c.3-2.1-1.3-3.2-3.4-3.9l.7-2.8-1.7-.4-.7 2.7c-.4-.1-.9-.2-1.4-.3l.7-2.7-1.7-.4-.7 2.8-1.1-.3-2.4-.6-.5 1.8s1.3.3 1.2.3c.7.2.8.6.8 1l-.8 3.2c0 0 .1 0 .1 0l-.1 0-1.1 4.6c-.1.2-.3.5-.7.4 0 0-1.2-.3-1.2-.3l-.8 2 2.2.6 1.2.3-.7 2.8 1.7.4.7-2.8c.5.1.9.2 1.4.3l-.7 2.8 1.7.4.7-2.8c2.9.5 5.1.3 6-2.3.7-2.1 0-3.3-1.5-4.1 1.1-.3 1.9-1 2.1-2.5zm-3.8 5.3c-.5 2.1-4.1 1-5.2.7l.9-3.7c1.2.3 4.9.9 4.3 3zm.5-5.3c-.5 1.9-3.4.9-4.4.7l.8-3.4c1 .2 4.1.7 3.6 2.7z"/></symbol>

<symbol id="icon-bnb" viewBox="0 0 32 32"><circle cx="16" cy="16" r="16" fill="#F0B90B"/><path fill="#fff" d="M16 6.7l2.8 2.8-5.2 5.2-2.8-2.8L16 6.7zm5.8 5.8l2.8 2.8-2.8 2.8-2.8-2.8 2.8-2.8zM7.4 12.5l2.8 2.8-2.8 2.8-2.8-2.8 2.8-2.8zm8.6 2.8l2.8 2.8-5.2 5.2L8.4 18l2.8-2.8 2.4 2.4 2.4-2.4z"/></symbol>

<symbol id="icon-avax" viewBox="0 0 32 32"><circle cx="16" cy="16" r="16" fill="#E84142"/><path fill="#fff" d="M20.5 20h3c.5 0 .7-.1.9-.5.2-.3.2-.7 0-1l-7.5-13c-.2-.4-.5-.5-.9-.5s-.7.2-.9.5l-2.2 3.8 5.3 9.3c.2.3.5.5.9.5h1.4zm-8.7 0h-3.3c-.5 0-.7-.1-.9-.5-.2-.3-.2-.7 0-1l1.6-2.8.2-.3 2.2-3.7 2.2 3.8-1.1 1.9-.9 1.6c-.2.3-.5.5-.9.5h-.1z"/></symbol>

<symbol id="icon-matic" viewBox="0 0 32 32"><circle cx="16" cy="16" r="16" fill="#8247E5"/><path fill="#fff" d="M21.2 12.7a1.3 1.3 0 0 0-1.2 0l-2.8 1.6-1.9 1.1-2.8 1.6a1.3 1.3 0 0 1-1.2 0l-2.2-1.3a1.2 1.2 0 0 1-.6-1v-2.5c0-.4.2-.8.6-1l2.1-1.2a1.3 1.3 0 0 1 1.2 0l2.1 1.2c.4.2.6.6.6 1v1.6l1.9-1.1v-1.7c0-.4-.2-.8-.6-1l-4-2.3a1.3 1.3 0 0 0-1.2 0l-4 2.4c-.4.2-.7.6-.7 1v4.6c0 .4.2.8.6 1l4 2.3a1.3 1.3 0 0 0 1.3 0l2.8-1.6 1.9-1.1 2.8-1.6a1.3 1.3 0 0 1 1.2 0l2.1 1.2c.4.2.6.6.6 1v2.5c0 .4-.2.8-.6 1l-2.1 1.2a1.3 1.3 0 0 1-1.2 0l-2.1-1.2a1.2 1.2 0 0 1-.6-1V18l-1.9 1.1v1.6c0 .4.2.8.6 1l4 2.3a1.3 1.3 0 0 0 1.3 0l4-2.3c.4-.2.6-.6.6-1v-4.6c0-.4-.2-.8-.6-1l-4.1-2.4z"/></symbol>

<symbol id="icon-arb" viewBox="0 0 32 32"><circle cx="16" cy="16" r="16" fill="#28A0F0"/><path fill="#fff" d="M16.9 15.3l2.4 3.8 2.4-1.4-3.4-5.4-1.4 3zm5.7 5.3l1.2-7.1a1 1 0 0 0-.5-.9l-6.5-3.7a1 1 0 0 0-1 0l-6.5 3.7a1 1 0 0 0-.5.9l1.2 7.1 1.9-1.1-1-6 5.4-3 4 6.4-1.7 2.7 2 1.2z"/></symbol>

<symbol id="icon-xrp" viewBox="0 0 32 32"><circle cx="16" cy="16" r="16" fill="#23292F"/><path fill="#fff" d="M23.3 8h2.5l-5.7 5.5a5.8 5.8 0 0 1-8.2 0L6.2 8h2.5l4.4 4.3a3.8 3.8 0 0 0 5.3 0L23.3 8zM8.6 24H6.2l5.8-5.5a5.8 5.8 0 0 1 8.2 0l5.6 5.5h-2.5l-4.4-4.3a3.8 3.8 0 0 0-5.3 0L8.6 24z"/></symbol>

<symbol id="icon-link" viewBox="0 0 32 32"><circle cx="16" cy="16" r="16" fill="#2A5ADA"/><path fill="#fff" d="M16 6.5L14 7.6l-7 4L5 12.8v6.5l2 1.1 7 4 2 1.1 2-1.1 7-4 2-1.1v-6.5l-2-1.1-7-4-2-1.2zm5 14.4l-5 2.9-5-2.9v-5.7l5-2.9 5 2.9v5.7z"/></symbol>

<symbol id="icon-uni" viewBox="0 0 32 32"><circle cx="16" cy="16" r="16" fill="#FF007A"/><path fill="#fff" d="M13.5 8c-.3 0-.3.2-.1.3.8.5 1.6 1.2 2 2.2.1.2.1.4.2.6 0 .3-.1.5-.2.7-.3.5-.8.8-.8 1.4 0 .5.3.9.7 1.2-.3-.1-.7-.1-1 0-.7.2-1.1.9-1 1.6.2.7.9 1 1.5.8.7-.2 1-.9.9-1.6 0-.2 0-.4.1-.5.2-.2.5-.2.7-.3.3-.2.5-.5.5-.9v-.1c0 0 0 .2.1.3.5 2.2-.4 4.1-1.6 5.6-1.5 1.9-3.3 3-3.5 5.5-.1 1 .2 2.1.8 2.9 1.2 1.5 3.3 2.1 5.2 1.6 2-.5 3.4-2 4.2-3.8.5-1.2.8-2.5.5-3.8-.3-1.4-1.3-2.5-2.5-3.2-1-.6-2.1-.8-3-.4-.5.2-.8.7-.8 1.2 0 .4.2.8.5 1h0c.3.2.7.1 1-.1.2-.2.3-.4.3-.6 0-.3-.2-.5-.4-.6.3-.1.6 0 .9.1.7.4 1 1.2 1 2 0 1.2-.7 2.3-1.6 3-1 .8-2.3 1.2-3.5.9-1.3-.4-2-1.6-1.8-2.9.2-1.5 1.3-2.7 2.4-3.7.8-.8 1.6-1.5 2.1-2.5.6-1.1.7-2.5.2-3.6C16 9 14.8 8.1 13.5 8z"/></symbol>

<symbol id="icon-aave" viewBox="0 0 32 32"><circle cx="16" cy="16" r="16" fill="#B6509E"/><path fill="#fff" d="M22.3 22.4L17 10.8c-.4-.8-1-1.3-1.7-1.3h-.7c-.7 0-1.3.5-1.7 1.3l-2.3 5h-1.4c-.5 0-.9.4-.9.9v0c0 .5.4.9.9.9h.7l-2.7 5.8c-.1.2 0 .5.3.5h1.7c.5 0 .9-.3 1.1-.7l2.7-5.8h1.4l2.7 5.8c.2.4.6.7 1.1.7h1.8c.3 0 .4-.3.3-.5zm-7.7-6.2l1.6-3.5 1.6 3.5h-3.2z"/></symbol>

<symbol id="icon-doge" viewBox="0 0 32 32"><circle cx="16" cy="16" r="16" fill="#C2A633"/><path fill="#fff" d="M13.2 9.5h4.1c4.4 0 6.5 2.7 6.5 6.5s-2.1 6.5-6.5 6.5h-4.1v-13zm2.7 2.3v8.4h1.5c2.7 0 3.7-1.8 3.7-4.2s-1-4.2-3.7-4.2h-1.5zm-3.5 4h5v2.3h-5v-2.3z"/></symbol>

<symbol id="icon-jup" viewBox="0 0 32 32"><circle cx="16" cy="16" r="16" fill="#1A1E2E"/><path fill="#22D695" d="M16 6C10.5 6 6 10.5 6 16s4.5 10 10 10 10-4.5 10-10S21.5 6 16 6zm4.8 8.5l-3.7 7.4c-.2.5-.9.5-1.2.1l-5.7-8.5c-.2-.4.1-.8.5-.8h4.1l-2 3.6 2.5 3.2 3.5-7h-3.4c-.4 0-.6-.4-.5-.7l1.5-3.1c.2-.3.5-.5.9-.5h2.5c.6 0 1 .5.8 1l-.3.5z"/></symbol>

<symbol id="icon-ray" viewBox="0 0 32 32"><circle cx="16" cy="16" r="16" fill="#2B2D5E"/><path fill="#52DEF0" d="M12 9h2v14h-2zM18 9h2v14h-2z"/><path fill="#52DEF0" d="M9 14h14v2H9zM9 18h14v2H9z"/></symbol>

<symbol id="icon-orca" viewBox="0 0 32 32"><circle cx="16" cy="16" r="16" fill="#FFD15C"/><path fill="#000" d="M16 8c-4.4 0-8 3.6-8 8s3.6 8 8 8 8-3.6 8-8-3.6-8-8-8zm-2 11c-.6 0-1-.4-1-1s.4-1 1-1 1 .4 1 1-.4 1-1 1zm4 0c-.6 0-1-.4-1-1s.4-1 1-1 1 .4 1 1-.4 1-1 1zm3-3c-1 2-3 3-5 3s-4-1-5-3c-.2-.4 0-.8.3-1h9.4c.3.2.5.6.3 1z"/></symbol>

<symbol id="icon-pyth" viewBox="0 0 32 32"><circle cx="16" cy="16" r="16" fill="#6B3FA0"/><path fill="#fff" d="M16 7l7 5v8l-7 5-7-5v-8l7-5zm0 2.3L11 12.5v7l5 3.2 5-3.2v-7L16 9.3z"/></symbol>

<symbol id="icon-render" viewBox="0 0 32 32"><circle cx="16" cy="16" r="16" fill="#1A1A2E"/><path fill="#fff" d="M11 11h4v4h-4zM17 11h4v4h-4zM11 17h4v4h-4zM17 17h4v2h-2v2h-2v-4z"/></symbol>

<symbol id="icon-near" viewBox="0 0 32 32"><circle cx="16" cy="16" r="16" fill="#000"/><path fill="#fff" d="M21.2 7.4l-3.8 5.7c-.2.3.2.6.4.4l3.7-3.1c.1-.1.3 0 .3.2v11c0 .1-.2.2-.3.1l-10-14.2c-.4-.5-1-.8-1.7-.8h-.4A2.4 2.4 0 0 0 7 9.1v13.8a2.4 2.4 0 0 0 4.8.6l3.8-5.7c.2-.3-.2-.6-.4-.4l-3.7 3.1c-.1.1-.3 0-.3-.2v-11c0-.1.2-.2.3-.1l10 14.2c.4.5 1 .8 1.7.8h.4A2.4 2.4 0 0 0 25 22.8V9.1a2.4 2.4 0 0 0-3.8-.6z"/></symbol>

<symbol id="icon-inj" viewBox="0 0 32 32"><circle cx="16" cy="16" r="16" fill="#00F2FE"/><path fill="#000" d="M16 8a8 8 0 1 0 0 16 8 8 0 0 0 0-16zm0 2.5a1.5 1.5 0 1 1 0 3 1.5 1.5 0 0 1 0-3zm-3 4.5h6v1h-6v-1zm-1 3h8v1H12v-1z"/></symbol>

<symbol id="icon-fet" viewBox="0 0 32 32"><circle cx="16" cy="16" r="16" fill="#1B2141"/><path fill="#FFF" d="M16 7c-5 0-9 4-9 9s4 9 9 9 9-4 9-9-4-9-9-9zm0 2a7 7 0 0 1 6.9 6H17v-6h-.5V15H9.1A7 7 0 0 1 16 9zm0 14a7 7 0 0 1-6.9-6H15v6h.5V17h7.4A7 7 0 0 1 16 23z"/></symbol>

<symbol id="icon-pepe" viewBox="0 0 32 32"><circle cx="16" cy="16" r="16" fill="#3E8B3D"/><path fill="#fff" d="M10 14c0-3.3 2.7-6 6-6s6 2.7 6 6v2c0 1.5-.7 2.9-1.8 3.8.5 1 .8 2.1.8 3.2h-2c0-1-.3-1.9-.7-2.7-.7.2-1.5.4-2.3.4s-1.6-.1-2.3-.4c-.5.8-.7 1.7-.7 2.7h-2c0-1.1.3-2.2.8-3.2A4.8 4.8 0 0 1 10 16v-2zm4 1a1 1 0 1 0 0-2 1 1 0 0 0 0 2zm4 0a1 1 0 1 0 0-2 1 1 0 0 0 0 2z"/></symbol>

<symbol id="icon-shib" viewBox="0 0 32 32"><circle cx="16" cy="16" r="16" fill="#FFA409"/><path fill="#fff" d="M16 7c-5 0-9 4-9 9s4 9 9 9 9-4 9-9-4-9-9-9zm-3 7a1.5 1.5 0 1 1 0 3 1.5 1.5 0 0 1 0-3zm6 0a1.5 1.5 0 1 1 0 3 1.5 1.5 0 0 1 0-3zm-6 5h6c0 1.7-1.3 3-3 3s-3-1.3-3-3z"/></symbol>

<symbol id="icon-op" viewBox="0 0 32 32"><circle cx="16" cy="16" r="16" fill="#FF0420"/><path fill="#fff" d="M12.2 12.4c1.7 0 3 .6 3.8 1.7.4.5.6 1.1.6 1.8 0 .7-.2 1.4-.7 2-.5.6-1.1 1.1-1.9 1.4-.8.3-1.7.5-2.7.5h-1.1l-.7 2.8H7.3l2.3-10.2h2.6zm-.8 5.2c.8 0 1.4-.2 1.9-.5.5-.4.7-.9.7-1.5 0-.5-.2-.8-.5-1.1-.3-.3-.8-.4-1.5-.4h-.7l-.7 3.5h.8zm8.5-5.2c1.1 0 2 .3 2.5.9.6.6.8 1.4.8 2.4 0 .8-.2 1.5-.5 2.2-.3.7-.8 1.2-1.5 1.6-.7.4-1.5.6-2.3.6-1.1 0-2-.3-2.5-.9-.6-.6-.8-1.4-.8-2.4 0-.8.2-1.5.5-2.2.3-.7.8-1.2 1.5-1.6.7-.4 1.5-.6 2.3-.6zm-.2 2c-.6 0-1.1.2-1.4.6-.4.4-.6 1-.6 1.8 0 .5.1 1 .4 1.3.3.3.6.4 1.1.4.6 0 1.1-.2 1.4-.7.4-.4.6-1 .6-1.8 0-.5-.1-1-.4-1.2-.3-.3-.6-.4-1.1-.4z"/></symbol>

<symbol id="icon-ldo" viewBox="0 0 32 32"><circle cx="16" cy="16" r="16" fill="#00A3FF"/><path fill="#fff" d="M16 7l5.7 9.3-5.7 3.4-5.7-3.4L16 7zm0 14.5l5.7-3.4L16 25l-5.7-6.9L16 21.5z"/></symbol>

<symbol id="icon-sui" viewBox="0 0 32 32"><circle cx="16" cy="16" r="16" fill="#4DA2FF"/><path fill="#fff" d="M20.6 10.6c-1.7-1.7-3.9-2.6-4.6-2.6s-2.9.9-4.6 2.6C9.7 12.3 9 14 9 16s.7 3.7 2.4 5.4c1.7 1.7 3.9 2.6 4.6 2.6s2.9-.9 4.6-2.6C22.3 19.7 23 18 23 16s-.7-3.7-2.4-5.4zm-6.1 9a2.5 2.5 0 0 1-1.8-4.3l3.3-3.3 1.4 1.4-3.3 3.3a.5.5 0 0 0 .4.9h4.2a2.5 2.5 0 0 1 0 2h-4.2z"/></symbol>

<symbol id="icon-sei" viewBox="0 0 32 32"><circle cx="16" cy="16" r="16" fill="#9B1C1C"/><path fill="#fff" d="M16 7c-5 0-9 4-9 9s4 9 9 9 9-4 9-9-4-9-9-9zm3.5 13.5c-1.5 1.5-3.9 1.5-5.4.3l5.7-5.7c1.2 1.5 1.2 3.9-.3 5.4zm-7.4-2.6l5.7-5.7c-1.5-1.2-3.9-1.2-5.4.3s-1.5 3.9-.3 5.4z"/></symbol>

<symbol id="icon-apt" viewBox="0 0 32 32"><circle cx="16" cy="16" r="16" fill="#2DD8A3"/><path fill="#fff" d="M20.6 10h-3.4l-1.3 2.1h3.3l-1.4 2.2H14l-1.3 2.1h5.5l-1.3 2.2h-7l-1.4 2.1h11.4L24 14.8l-3.4-4.8zm-9.2 0L8 14.8 11.4 20l1.4-2.1-2-3.2 1.3-2.1.7 1 1.3-2.1L12.8 10h-1.4z"/></symbol>

<symbol id="icon-fil" viewBox="0 0 32 32"><circle cx="16" cy="16" r="16" fill="#0090FF"/><path fill="#fff" d="M17 8h-2v2.5l-1.5.4.5 1.9L15.5 12v3.1l-2.7.7.5 1.9 2.2-.6v3.2l-1.5.4.5 1.9 1-.3V24h2v-2.2l1.5-.4-.5-1.9-1 .3V16.5l2.7-.7-.5-1.9-2.2.6V11.4l1.5-.4-.5-1.9-1 .3V8z"/></symbol>

<symbol id="icon-tao" viewBox="0 0 32 32"><circle cx="16" cy="16" r="16" fill="#1A1A2E"/><path fill="#fff" d="M16 8a8 8 0 1 0 0 16 8 8 0 0 0 0-16zm0 2c3.3 0 6 2.7 6 6h-6v-6zm-6 6a6 6 0 0 1 5-5.9V22a6 6 0 0 1-5-6z"/></symbol>

<symbol id="icon-olas" viewBox="0 0 32 32"><circle cx="16" cy="16" r="16" fill="#7C3AED"/><path fill="#fff" d="M16 8a8 8 0 1 0 0 16 8 8 0 0 0 0-16zm0 3a5 5 0 0 1 4.3 2.5l-4.3 2.5V11zm-5 5a5 5 0 0 1 4-4.9v9.8A5 5 0 0 1 11 16zm6 4.9V13l4.3 2.5A5 5 0 0 1 17 20.9z"/></symbol>

</svg>
